<svg id="Слой_1" data-name="Слой 1" xmlns="http://www.w3.org/2000/svg" xmlns:xlink="http://www.w3.org/1999/xlink" viewBox="0 0 23.31 23.09"><defs><style>.cls-1{fill:#839f9f;}.cls-2{clip-path:url(#clip-path);}.cls-3{fill:#2f9f9c;fill-rule:evenodd;}.cls-4{fill:none;stroke:#2f9f9c;stroke-miterlimit:10;stroke-width:0.75px;}.cls-5{fill:#eaeded;}</style><clipPath id="clip-path"><circle id="_Эллипс_" data-name="&lt;Эллипс&gt;" class="cls-1" cx="11.72" cy="11.55" r="11.3"/></clipPath></defs><title>0,5</title><circle id="_Эллипс_2" data-name="&lt;Эллипс&gt;" class="cls-1" cx="11.72" cy="11.55" r="11.3"/><g class="cls-2"><polygon class="cls-3" points="-2.15 18 0.22 14.38 4.51 13.87 6.44 16.97 4.07 20.59 -0.23 21.11 -2.15 18"/><polygon class="cls-3" points="17.04 6.08 19.41 2.47 23.7 1.95 25.63 5.06 23.26 8.67 18.96 9.19 17.04 6.08"/><polygon class="cls-3" points="-0.23 1.96 4.07 2.47 6.43 6.09 4.51 9.2 0.21 8.68 -2.15 5.06 -0.23 1.96"/><polygon class="cls-3" points="18.97 13.86 23.26 14.38 25.63 18 23.7 21.1 19.41 20.58 17.04 16.96 18.97 13.86"/><polygon class="cls-3" points="13.56 -3.69 15.38 0.23 13.56 4.16 9.9 4.16 8.08 0.23 9.9 -3.69 13.56 -3.69"/><polygon class="cls-3" points="13.57 18.9 15.4 22.82 13.57 26.75 9.92 26.75 8.1 22.82 9.92 18.9 13.57 18.9"/></g><circle class="cls-4" cx="11.72" cy="11.55" r="7.57"/><path class="cls-5" d="M10.28,11.58a4.06,4.06,0,0,1-.48,2.21,1.63,1.63,0,0,1-1.46.72,1.62,1.62,0,0,1-1.45-.75,4,4,0,0,1-.49-2.19,4.09,4.09,0,0,1,.48-2.23,1.63,1.63,0,0,1,1.46-.72,1.62,1.62,0,0,1,1.45.75A4,4,0,0,1,10.28,11.58Zm-2.95,0a4.16,4.16,0,0,0,.24,1.67.84.84,0,0,0,1.54,0,4.11,4.11,0,0,0,.24-1.66,4.14,4.14,0,0,0-.24-1.66.84.84,0,0,0-1.54,0A4.19,4.19,0,0,0,7.33,11.58Z"/><path class="cls-5" d="M11.14,14a.6.6,0,0,1,.15-.44.57.57,0,0,1,.43-.15.57.57,0,0,1,.43.16.6.6,0,0,1,.15.43.62.62,0,0,1-.15.44.66.66,0,0,1-.86,0A.63.63,0,0,1,11.14,14Z"/><path class="cls-5" d="M15.11,10.87a2,2,0,0,1,1.37.46,1.6,1.6,0,0,1,.5,1.25A1.82,1.82,0,0,1,16.41,14a2.36,2.36,0,0,1-1.63.51,3.08,3.08,0,0,1-1.5-.31v-.83a2.79,2.79,0,0,0,.73.28,3.34,3.34,0,0,0,.76.1,1.42,1.42,0,0,0,.95-.28,1,1,0,0,0,.32-.81q0-1-1.3-1a3.32,3.32,0,0,0-.45,0l-.47.08-.41-.24.22-2.79h3v.82H14.42L14.3,11l.33-.05A3.14,3.14,0,0,1,15.11,10.87Z"/></svg>