<svg id="Слой_1" data-name="Слой 1" xmlns="http://www.w3.org/2000/svg" xmlns:xlink="http://www.w3.org/1999/xlink" viewBox="0 0 23.31 23.09"><defs><style>.cls-1{fill:#9f9e83;}.cls-2{clip-path:url(#clip-path);}.cls-3{fill:#a08c30;}.cls-3,.cls-4{fill-rule:evenodd;}.cls-4{fill:#a08e2e;}.cls-5{fill:none;stroke:#a08c30;stroke-miterlimit:10;stroke-width:0.75px;}.cls-6{fill:#eaeded;}</style><clipPath id="clip-path"><circle class="cls-1" cx="11.66" cy="11.55" r="11.3"/></clipPath></defs><title>1</title><circle class="cls-1" cx="11.66" cy="11.55" r="11.3"/><g class="cls-2"><polygon class="cls-3" points="-2.22 18 0.15 14.38 4.45 13.86 6.37 16.97 4 20.58 -0.29 21.1 -2.22 18"/><polygon class="cls-3" points="16.97 6.08 19.34 2.46 23.64 1.95 25.56 5.05 23.19 8.67 18.9 9.18 16.97 6.08"/><polygon class="cls-3" points="-0.29 1.95 4 2.47 6.37 6.09 4.44 9.19 0.15 8.67 -2.22 5.05 -0.29 1.95"/><polygon class="cls-4" points="18.9 13.86 23.2 14.38 25.56 17.99 23.64 21.09 19.34 20.58 16.98 16.96 18.9 13.86"/><polygon class="cls-3" points="13.49 -3.69 15.31 0.23 13.49 4.15 9.84 4.15 8.01 0.23 9.84 -3.69 13.49 -3.69"/><polygon class="cls-3" points="13.51 18.9 15.33 22.82 13.51 26.74 9.85 26.74 8.03 22.82 9.85 18.9 13.51 18.9"/></g><circle class="cls-5" cx="11.66" cy="11.55" r="7.57"/><path class="cls-6" d="M12.42,14.17H11.5V10.48c0-.44,0-.79,0-1l-.22.21-.88.72L10,9.78l1.68-1.32h.77Z"/></svg>