<svg id="Слой_1" data-name="Слой 1" xmlns="http://www.w3.org/2000/svg" viewBox="0 0 22.59 22.59"><defs><style>.cls-1{fill:#2d386e;}.cls-2{fill:#eaeded;}</style></defs><title>3x</title><g id="Эллипс_1" data-name="Эллипс 1"><circle class="cls-1" cx="11.29" cy="11.28" r="11.29"/></g><path class="cls-2" d="M10.91,9.56a1.32,1.32,0,0,1-.32.9,1.59,1.59,0,0,1-.89.49v0a1.72,1.72,0,0,1,1,.43,1.23,1.23,0,0,1,.34.91,1.51,1.51,0,0,1-.58,1.27A2.67,2.67,0,0,1,8.84,14a3.73,3.73,0,0,1-1.6-.31v-.82a3.6,3.6,0,0,0,.77.28,3.32,3.32,0,0,0,.78.1,1.65,1.65,0,0,0,1-.25.89.89,0,0,0,.33-.76.73.73,0,0,0-.36-.67,2.33,2.33,0,0,0-1.14-.21h-.5v-.75h.5Q10,10.64,10,9.7a.7.7,0,0,0-.24-.57,1.07,1.07,0,0,0-.7-.2A2.13,2.13,0,0,0,8.42,9a2.94,2.94,0,0,0-.71.36l-.45-.64a3,3,0,0,1,1.82-.58,2.17,2.17,0,0,1,1.35.37A1.22,1.22,0,0,1,10.91,9.56Z"/><path class="cls-2" d="M13.09,11.75,11.64,9.63h1l1,1.51,1-1.51h1l-1.45,2.11L15.78,14h-1l-1.07-1.62L12.61,14h-1Z"/></svg>