<svg id="Слой_1" data-name="Слой 1" xmlns="http://www.w3.org/2000/svg" xmlns:xlink="http://www.w3.org/1999/xlink" viewBox="0 0 23.31 23.09"><defs><style>.cls-1{fill:#8e6969;}.cls-2{clip-path:url(#clip-path);}.cls-3{fill:#8c2122;}.cls-3,.cls-4{fill-rule:evenodd;}.cls-4{fill:#8b2222;}.cls-5{fill:none;stroke:#8d2022;stroke-miterlimit:10;stroke-width:0.75px;}.cls-6{fill:#eaeded;}</style><clipPath id="clip-path"><circle class="cls-1" cx="11.66" cy="11.44" r="11.3"/></clipPath></defs><title>5</title><circle class="cls-1" cx="11.66" cy="11.44" r="11.3"/><g class="cls-2"><polygon class="cls-3" points="-2.22 17.89 0.15 14.27 4.45 13.76 6.37 16.86 4 20.48 -0.29 20.99 -2.22 17.89"/><polygon class="cls-4" points="16.97 5.97 19.34 2.35 23.64 1.84 25.56 4.94 23.19 8.56 18.9 9.07 16.97 5.97"/><polygon class="cls-3" points="-0.29 1.84 4 2.36 6.37 5.98 4.44 9.08 0.15 8.56 -2.22 4.94 -0.29 1.84"/><polygon class="cls-4" points="18.9 13.75 23.2 14.27 25.56 17.89 23.64 20.99 19.34 20.47 16.98 16.85 18.9 13.75"/><polygon class="cls-4" points="13.49 -3.8 15.31 0.12 13.49 4.04 9.84 4.04 8.01 0.12 9.84 -3.8 13.49 -3.8"/><polygon class="cls-4" points="13.51 18.79 15.33 22.71 13.51 26.63 9.85 26.63 8.03 22.71 9.85 18.79 13.51 18.79"/></g><circle class="cls-5" cx="11.66" cy="11.44" r="7.57"/><path class="cls-6" d="M11.66,10.73a2,2,0,0,1,1.37.46,1.6,1.6,0,0,1,.5,1.25A1.82,1.82,0,0,1,13,13.86a2.35,2.35,0,0,1-1.63.51,3.07,3.07,0,0,1-1.5-.31v-.83a2.72,2.72,0,0,0,.73.28,3.28,3.28,0,0,0,.76.1,1.41,1.41,0,0,0,.95-.28,1,1,0,0,0,.32-.81q0-1-1.3-1a3.38,3.38,0,0,0-.45,0l-.47.08-.41-.24.22-2.79h3V9.4H11l-.13,1.41.33-.05A3.12,3.12,0,0,1,11.66,10.73Z"/></svg>