<svg id="Слой_1" data-name="Слой 1" xmlns="http://www.w3.org/2000/svg" xmlns:xlink="http://www.w3.org/1999/xlink" viewBox="0 0 23.31 23.09"><defs><style>.cls-1{fill:#737372;}.cls-2{clip-path:url(#clip-path);}.cls-3{fill:#c9c9c9;fill-rule:evenodd;}.cls-4{fill:none;stroke:#c8c8c8;stroke-miterlimit:10;stroke-width:0.75px;}.cls-5{fill:#eaeded;}</style><clipPath id="clip-path"><circle class="cls-1" cx="11.66" cy="11.55" r="11.3"/></clipPath></defs><title>500</title><circle class="cls-1" cx="11.66" cy="11.55" r="11.3"/><g class="cls-2"><polygon class="cls-3" points="-2.22 17.99 0.15 14.38 4.45 13.86 6.37 16.96 4 20.58 -0.29 21.1 -2.22 17.99"/><polygon class="cls-3" points="16.97 6.08 19.34 2.46 23.64 1.94 25.56 5.05 23.19 8.66 18.9 9.18 16.97 6.08"/><polygon class="cls-3" points="-0.29 1.95 4 2.46 6.37 6.08 4.44 9.19 0.15 8.67 -2.22 5.05 -0.29 1.95"/><polygon class="cls-3" points="18.9 13.85 23.2 14.37 25.56 17.99 23.64 21.09 19.34 20.57 16.98 16.95 18.9 13.85"/><polygon class="cls-3" points="13.49 -3.7 15.31 0.23 13.49 4.14 9.84 4.14 8.01 0.23 9.84 -3.7 13.49 -3.7"/><polygon class="cls-3" points="13.51 18.89 15.33 22.82 13.51 26.73 9.85 26.73 8.03 22.82 9.85 18.89 13.51 18.89"/></g><circle class="cls-4" cx="11.66" cy="11.55" r="7.57"/><path class="cls-5" d="M7.64,11.33a1.47,1.47,0,0,1,1,.34,1.2,1.2,0,0,1,.38.93,1.37,1.37,0,0,1-.43,1.07,1.76,1.76,0,0,1-1.22.38,2.31,2.31,0,0,1-1.13-.23v-.62a2.07,2.07,0,0,0,.54.21,2.48,2.48,0,0,0,.57.07,1.06,1.06,0,0,0,.71-.21.76.76,0,0,0,.24-.61q0-.77-1-.77l-.34,0L6.66,12l-.31-.18.16-2.09H8.74v.61H7.12L7,11.4l.25,0Z"/><path class="cls-5" d="M13.11,11.86a3,3,0,0,1-.36,1.66,1.23,1.23,0,0,1-1.1.54,1.22,1.22,0,0,1-1.08-.56,3,3,0,0,1-.37-1.64,3.06,3.06,0,0,1,.36-1.67,1.22,1.22,0,0,1,1.09-.54,1.22,1.22,0,0,1,1.09.56A3,3,0,0,1,13.11,11.86Zm-2.21,0a3.12,3.12,0,0,0,.18,1.25.6.6,0,0,0,.58.38.61.61,0,0,0,.58-.38,3.08,3.08,0,0,0,.18-1.25,3.11,3.11,0,0,0-.18-1.25.61.61,0,0,0-.58-.39.6.6,0,0,0-.58.38A3.14,3.14,0,0,0,10.9,11.86Z"/><path class="cls-5" d="M17.14,11.86a3,3,0,0,1-.36,1.66,1.35,1.35,0,0,1-2.18,0,3,3,0,0,1-.37-1.64,3.06,3.06,0,0,1,.36-1.67,1.36,1.36,0,0,1,2.18,0A3,3,0,0,1,17.14,11.86Zm-2.21,0a3.12,3.12,0,0,0,.18,1.25.63.63,0,0,0,1.15,0,3.08,3.08,0,0,0,.18-1.25,3.1,3.1,0,0,0-.18-1.25.63.63,0,0,0-1.15,0A3.15,3.15,0,0,0,14.92,11.86Z"/></svg>