<svg id="Слой_1" data-name="Слой 1" xmlns="http://www.w3.org/2000/svg" viewBox="0 0 22.59 22.59"><defs><style>.cls-1{fill:#2d6e38;}.cls-2{fill:#eaeded;}</style></defs><title>check</title><g id="Эллипс_1" data-name="Эллипс 1"><circle class="cls-1" cx="11.31" cy="11.32" r="11.29"/></g><path class="cls-2" d="M5.06,9.45a1.15,1.15,0,0,0-.95.43,1.83,1.83,0,0,0-.35,1.18,1.84,1.84,0,0,0,.33,1.19,1.17,1.17,0,0,0,1,.4,2.53,2.53,0,0,0,.53-.05l.53-.14v.6A3.21,3.21,0,0,1,5,13.25a1.83,1.83,0,0,1-1.44-.57A2.38,2.38,0,0,1,3,11.05a2.62,2.62,0,0,1,.25-1.17A1.74,1.74,0,0,1,4,9.12a2.14,2.14,0,0,1,1.09-.27,2.7,2.7,0,0,1,1.21.28L6,9.71a3.82,3.82,0,0,0-.46-.18A1.66,1.66,0,0,0,5.06,9.45Z"/><path class="cls-2" d="M9.82,13.19H9.13v-2A.87.87,0,0,0,9,10.64a.58.58,0,0,0-.48-.18.76.76,0,0,0-.64.26,1.42,1.42,0,0,0-.2.87v1.61H7V8.64h.69V9.79a5.4,5.4,0,0,1,0,.59h0A1,1,0,0,1,8.06,10a1.27,1.27,0,0,1,.58-.13,1,1,0,0,1,1.18,1.19Z"/><path class="cls-2" d="M12.19,13.25A1.57,1.57,0,0,1,11,12.81a1.68,1.68,0,0,1-.43-1.21,1.84,1.84,0,0,1,.4-1.25,1.37,1.37,0,0,1,1.09-.45,1.34,1.34,0,0,1,1,.39,1.49,1.49,0,0,1,.37,1.07v.37H11.29a1.06,1.06,0,0,0,.25.72.89.89,0,0,0,.68.25,2.51,2.51,0,0,0,.54-.05,2.82,2.82,0,0,0,.53-.18V13a2.11,2.11,0,0,1-.51.17A3.13,3.13,0,0,1,12.19,13.25Zm-.13-2.84a.69.69,0,0,0-.53.21,1,1,0,0,0-.24.61h1.47a.9.9,0,0,0-.19-.61A.66.66,0,0,0,12.07,10.42Z"/><path class="cls-2" d="M15.54,13.25a1.42,1.42,0,0,1-1.12-.43A1.79,1.79,0,0,1,14,11.59a1.8,1.8,0,0,1,.4-1.26A1.48,1.48,0,0,1,15.6,9.9a2.17,2.17,0,0,1,.92.19l-.21.55a2.09,2.09,0,0,0-.72-.17q-.84,0-.84,1.12a1.34,1.34,0,0,0,.21.82.73.73,0,0,0,.61.27,1.76,1.76,0,0,0,.87-.23v.6a1.36,1.36,0,0,1-.39.16A2.36,2.36,0,0,1,15.54,13.25Z"/><path class="cls-2" d="M17.87,11.48l.39-.49,1-1H20l-1.3,1.39,1.39,1.85h-.81l-1-1.42-.38.31v1.11h-.68V8.64h.68v2.22l0,.62Z"/></svg>