<svg id="Слой_1" data-name="Слой 1" xmlns="http://www.w3.org/2000/svg" viewBox="0 0 30.25 155.25"><defs><style>.cls-1{fill:none;stroke:#b4aaaa;stroke-miterlimit:10;stroke-width:1px;}.cls-2{fill:#b4aaaa;}</style></defs><title>Монтажная область 1</title><rect class="cls-1" x="0.77" y="0.82" width="28.75" height="153.63"/><path class="cls-2" d="M15.74,36.55a3.26,3.26,0,0,0-2.6,1.1,4.42,4.42,0,0,0-1,3,4.52,4.52,0,0,0,.92,3,3.27,3.27,0,0,0,2.62,1.07,9,9,0,0,0,2.39-.38v1a7.34,7.34,0,0,1-2.56.39,4.34,4.34,0,0,1-3.41-1.34,5.51,5.51,0,0,1-1.2-3.81,6,6,0,0,1,.58-2.71,4.15,4.15,0,0,1,1.67-1.79,5.05,5.05,0,0,1,2.57-.63,6.2,6.2,0,0,1,2.75.57l-.49,1A5.3,5.3,0,0,0,15.74,36.55Z"/><path class="cls-2" d="M18.3,70.3H17.14V65.6H11.88v4.7H10.72v-10h1.16v4.25h5.26V60.31H18.3Z"/><path class="cls-2" d="M17.73,95l-1.24-3.18h-4L11.25,95H10.08l4-10h1l3.93,10Zm-1.61-4.22L15,87.63q-.23-.59-.46-1.44a13.11,13.11,0,0,1-.43,1.44l-1.18,3.1Z"/><path class="cls-2" d="M15.08,119.61H13.92v-9H10.76v-1h7.49v1H15.08Z"/></svg>