<svg id="Слой_1" data-name="Слой 1" xmlns="http://www.w3.org/2000/svg" viewBox="0 0 30.25 155.25"><defs><style>.cls-1{fill:#b4aaaa;}.cls-2{fill:none;stroke:#b4aaaa;stroke-miterlimit:10;}</style></defs><title>Монтажная область 1</title><path class="cls-1" d="M15.49,37.17a2.5,2.5,0,0,0-2.06.93,4,4,0,0,0-.75,2.56,4,4,0,0,0,.72,2.58,2.55,2.55,0,0,0,2.09.88A5.49,5.49,0,0,0,16.63,44q.55-.12,1.15-.3V45a7,7,0,0,1-2.48.41,4,4,0,0,1-3.13-1.23,5.17,5.17,0,0,1-1.09-3.53,5.71,5.71,0,0,1,.53-2.53,3.79,3.79,0,0,1,1.53-1.66,4.63,4.63,0,0,1,2.35-.58,5.84,5.84,0,0,1,2.63.6l-.55,1.26a8.13,8.13,0,0,0-1-.39A3.58,3.58,0,0,0,15.49,37.17Z"/><path class="cls-1" d="M12.14,63.74V54.46h1.52v8h3.93v1.3Z"/><path class="cls-1" d="M18.79,77.55a5.07,5.07,0,0,1-1.13,3.52,4.1,4.1,0,0,1-3.21,1.26,4.13,4.13,0,0,1-3.23-1.25,5.11,5.11,0,0,1-1.13-3.54A5,5,0,0,1,11.22,74a4.17,4.17,0,0,1,3.23-1.23A4.09,4.09,0,0,1,17.66,74,5.07,5.07,0,0,1,18.79,77.55Zm-7.08,0a4.16,4.16,0,0,0,.69,2.6,2.44,2.44,0,0,0,2.05.89,2.44,2.44,0,0,0,2-.88,5.27,5.27,0,0,0,0-5.2,2.41,2.41,0,0,0-2-.88A2.46,2.46,0,0,0,12.4,75,4.12,4.12,0,0,0,11.7,77.55Z"/><path class="cls-1" d="M17.44,98.14a2.34,2.34,0,0,1-.9,1.94,3.89,3.89,0,0,1-2.47.7,5.89,5.89,0,0,1-2.58-.49V98.86a7.06,7.06,0,0,0,1.35.47,5.73,5.73,0,0,0,1.33.17,2.12,2.12,0,0,0,1.33-.34,1.12,1.12,0,0,0,.43-.92,1.16,1.16,0,0,0-.39-.88,6,6,0,0,0-1.62-.86,4.3,4.3,0,0,1-1.79-1.17,2.48,2.48,0,0,1-.52-1.59,2.22,2.22,0,0,1,.83-1.83,3.42,3.42,0,0,1,2.22-.67,6.51,6.51,0,0,1,2.65.58l-.48,1.24a5.8,5.8,0,0,0-2.21-.52,1.69,1.69,0,0,0-1.12.32,1.05,1.05,0,0,0-.38.85,1.2,1.2,0,0,0,.15.62,1.57,1.57,0,0,0,.5.48,8.52,8.52,0,0,0,1.26.6,6.88,6.88,0,0,1,1.5.79,2.34,2.34,0,0,1,.7.83A2.5,2.5,0,0,1,17.44,98.14Z"/><path class="cls-1" d="M17.29,119.12H12v-9.28h5.25v1.28H13.55v2.53H17v1.27h-3.5v2.91h3.73Z"/><rect class="cls-2" x="0.77" y="0.82" width="28.75" height="153.63"/></svg>