<svg id="Слой_1" data-name="Слой 1" xmlns="http://www.w3.org/2000/svg" viewBox="0 0 151.29 12"><defs><style>.cls-1{fill:#b0a9a8;}</style></defs><title>deposit</title><path class="cls-1" d="M9.47,5.77A5.69,5.69,0,0,1,7.9,10.09a6.3,6.3,0,0,1-4.52,1.5H.19V.17H3.71A5.83,5.83,0,0,1,8,1.64,5.49,5.49,0,0,1,9.47,5.77Zm-2,.06q0-4.1-3.83-4.1H2.05V10H3.38Q7.5,10,7.5,5.83Z"/><path class="cls-1" d="M32.87,11.59H26.42V.17h6.45V1.74H28.28V4.85h4.3V6.42h-4.3V10h4.59Z"/><path class="cls-1" d="M57.39,3.62a3.33,3.33,0,0,1-1.17,2.74,5.15,5.15,0,0,1-3.33,1H51.7v4.27H49.84V.17h3.29a5,5,0,0,1,3.2.87A3.14,3.14,0,0,1,57.39,3.62ZM51.7,5.74h1a3.55,3.55,0,0,0,2.11-.5,1.82,1.82,0,0,0,.67-1.56,1.77,1.77,0,0,0-.6-1.47A3,3,0,0,0,53,1.73H51.7Z"/><path class="cls-1" d="M84.3,5.86A6.25,6.25,0,0,1,82.9,10.2a5.85,5.85,0,0,1-7.91,0A6.29,6.29,0,0,1,73.6,5.85,6.19,6.19,0,0,1,75,1.5,5.13,5.13,0,0,1,79,0a5,5,0,0,1,3.93,1.54A6.25,6.25,0,0,1,84.3,5.86Zm-8.71,0a5.12,5.12,0,0,0,.85,3.2,3.46,3.46,0,0,0,5,0,5.13,5.13,0,0,0,.85-3.21,5.14,5.14,0,0,0-.84-3.19A3,3,0,0,0,79,1.59a3,3,0,0,0-2.53,1.09A5.08,5.08,0,0,0,75.59,5.86Z"/><path class="cls-1" d="M107.83,8.49a2.88,2.88,0,0,1-1.1,2.39,4.78,4.78,0,0,1-3,.87,7.24,7.24,0,0,1-3.17-.6V9.38a8.58,8.58,0,0,0,1.66.58,7,7,0,0,0,1.63.21,2.6,2.6,0,0,0,1.63-.42A1.38,1.38,0,0,0,106,8.61a1.42,1.42,0,0,0-.48-1.09,7.27,7.27,0,0,0-2-1.05A5.29,5.29,0,0,1,101.29,5a3.06,3.06,0,0,1-.64-2,2.74,2.74,0,0,1,1-2.25A4.21,4.21,0,0,1,104.39,0a8,8,0,0,1,3.26.72l-.59,1.52a7.13,7.13,0,0,0-2.72-.64A2.08,2.08,0,0,0,103,2a1.29,1.29,0,0,0-.47,1,1.47,1.47,0,0,0,.19.76,1.91,1.91,0,0,0,.62.6,10.39,10.39,0,0,0,1.54.74,8.43,8.43,0,0,1,1.84,1,2.86,2.86,0,0,1,.86,1A3.07,3.07,0,0,1,107.83,8.49Z"/><path class="cls-1" d="M124.53,11.59V.17h1.87V11.59Z"/><path class="cls-1" d="M147.85,11.59H146V1.77h-3.36V.17h8.58v1.6h-3.36Z"/></svg>