<svg id="Слой_1" data-name="Слой 1" xmlns="http://www.w3.org/2000/svg" viewBox="0 0 151.67 12.75"><defs><style>.cls-1{fill:#b0a9a8;}</style></defs><title>poker</title><path class="cls-1" d="M8.25,4.19A3.33,3.33,0,0,1,7.08,6.93a5.15,5.15,0,0,1-3.33,1H2.56v4.27H.7V.74H4a5,5,0,0,1,3.2.88A3.14,3.14,0,0,1,8.25,4.19ZM2.56,6.32h1a3.55,3.55,0,0,0,2.11-.5,1.82,1.82,0,0,0,.67-1.56,1.77,1.77,0,0,0-.6-1.47A3,3,0,0,0,3.86,2.3H2.56Z"/><path class="cls-1" d="M45.76,6.43a6.25,6.25,0,0,1-1.39,4.34,5,5,0,0,1-3.95,1.55,5.07,5.07,0,0,1-4-1.54,6.29,6.29,0,0,1-1.39-4.36,6.19,6.19,0,0,1,1.39-4.34,5.13,5.13,0,0,1,4-1.52A5,5,0,0,1,44.37,2.1,6.25,6.25,0,0,1,45.76,6.43ZM37,6.43a5.12,5.12,0,0,0,.85,3.2,3.46,3.46,0,0,0,5,0,5.13,5.13,0,0,0,.85-3.21,5.14,5.14,0,0,0-.84-3.19,3,3,0,0,0-2.5-1.09A3,3,0,0,0,37.9,3.25,5.08,5.08,0,0,0,37,6.43Z"/><path class="cls-1" d="M82,12.16H79.85L76.27,7l-1.1.9v4.27H73.31V.74h1.87V6.19q.76-.94,1.52-1.8L79.78.74H81.9q-3,3.52-4.29,5Z"/><path class="cls-1" d="M115.07,12.16h-6.45V.74h6.45V2.32h-4.59V5.43h4.3V7h-4.3v3.59h4.59Z"/><path class="cls-1" d="M144.5,7.6v4.56h-1.87V.74h3.22a5.29,5.29,0,0,1,3.27.83,3,3,0,0,1,1.06,2.5,3.12,3.12,0,0,1-2.22,3l3.22,5.05h-2.12L146.34,7.6Zm0-1.55h1.29a3,3,0,0,0,1.89-.48,1.76,1.76,0,0,0,.58-1.44,1.55,1.55,0,0,0-.63-1.39,3.47,3.47,0,0,0-1.9-.42H144.5Z"/></svg>