<svg id="Слой_1" data-name="Слой 1" xmlns="http://www.w3.org/2000/svg" viewBox="0 0 151.67 12.75"><defs><style>.cls-1{fill:#b0a9a8;}</style></defs><title>roulette</title><path class="cls-1" d="M2.36,7.6v4.56H.49V.74H3.71A5.29,5.29,0,0,1,7,1.57,3,3,0,0,1,8,4.07a3.12,3.12,0,0,1-2.22,3l3.22,5.05H6.93L4.2,7.6Zm0-1.55H3.65a3,3,0,0,0,1.89-.48,1.76,1.76,0,0,0,.58-1.44,1.55,1.55,0,0,0-.63-1.39,3.47,3.47,0,0,0-1.9-.42H2.36Z"/><path class="cls-1" d="M31.34,6.43a6.25,6.25,0,0,1-1.39,4.34A5,5,0,0,1,26,12.32a5.07,5.07,0,0,1-4-1.54,6.29,6.29,0,0,1-1.39-4.36A6.19,6.19,0,0,1,22,2.07,5.13,5.13,0,0,1,26,.56,5,5,0,0,1,30,2.1,6.25,6.25,0,0,1,31.34,6.43Zm-8.71,0a5.12,5.12,0,0,0,.85,3.2A3,3,0,0,0,26,10.72a3,3,0,0,0,2.51-1.08,5.13,5.13,0,0,0,.85-3.21,5.14,5.14,0,0,0-.84-3.19A3,3,0,0,0,26,2.16a3,3,0,0,0-2.53,1.09A5.08,5.08,0,0,0,22.63,6.43Z"/><path class="cls-1" d="M53.24.74V8.13a4.38,4.38,0,0,1-.54,2.21,3.61,3.61,0,0,1-1.57,1.46,5.45,5.45,0,0,1-2.46.51,4.59,4.59,0,0,1-3.3-1.12A4.08,4.08,0,0,1,44.19,8.1V.74h1.87V8a2.89,2.89,0,0,0,.66,2.09,2.7,2.7,0,0,0,2,.67q2.64,0,2.64-2.77V.74Z"/><path class="cls-1" d="M66.66,12.16V.74h1.87v9.82h4.83v1.6Z"/><path class="cls-1" d="M92.28,12.16H85.83V.74h6.45V2.32H87.69V5.43H92V7h-4.3v3.59h4.59Z"/><path class="cls-1" d="M109.19,12.16h-1.87V2.34H104V.74h8.58v1.6h-3.36Z"/><path class="cls-1" d="M128.74,12.16h-1.87V2.34h-3.36V.74h8.58v1.6h-3.36Z"/><path class="cls-1" d="M150.8,12.16h-6.45V.74h6.45V2.32h-4.59V5.43h4.3V7h-4.3v3.59h4.59Z"/></svg>