<svg id="Слой_1" data-name="Слой 1" xmlns="http://www.w3.org/2000/svg" viewBox="0 0 8.69 12.75"><defs><style>.cls-1{fill:#a09a9a;}</style></defs><title>s</title><path class="cls-1" d="M8.13,9A2.87,2.87,0,0,1,7,11.37a4.79,4.79,0,0,1-3,.87,7.25,7.25,0,0,1-3.17-.6V9.87a8.59,8.59,0,0,0,1.66.58,7,7,0,0,0,1.64.21,2.6,2.6,0,0,0,1.64-.42A1.38,1.38,0,0,0,6.27,9.1,1.42,1.42,0,0,0,5.79,8,7.29,7.29,0,0,0,3.79,7a5.28,5.28,0,0,1-2.2-1.45,3.06,3.06,0,0,1-.64-2A2.74,2.74,0,0,1,2,1.31,4.21,4.21,0,0,1,4.69.49,8,8,0,0,1,8,1.21L7.36,2.74a7.14,7.14,0,0,0-2.72-.64,2.09,2.09,0,0,0-1.37.39,1.29,1.29,0,0,0-.47,1A1.47,1.47,0,0,0,3,4.29a1.92,1.92,0,0,0,.62.6,10.44,10.44,0,0,0,1.55.74A8.46,8.46,0,0,1,7,6.61a2.88,2.88,0,0,1,.86,1A3.07,3.07,0,0,1,8.13,9Z"/></svg>