<svg id="Слой_1" data-name="Слой 1" xmlns="http://www.w3.org/2000/svg" viewBox="0 0 151.67 12.75"><defs><style>.cls-1{fill:#b0a9a8;}</style></defs><title>slot machine</title><path class="cls-1" d="M8.09,9.06A2.88,2.88,0,0,1,7,11.45a4.78,4.78,0,0,1-3,.87,7.24,7.24,0,0,1-3.17-.6V9.95a8.58,8.58,0,0,0,1.66.58,7,7,0,0,0,1.63.21,2.6,2.6,0,0,0,1.63-.42,1.38,1.38,0,0,0,.53-1.13A1.42,1.42,0,0,0,5.75,8.1,7.27,7.27,0,0,0,3.75,7,5.29,5.29,0,0,1,1.55,5.6a3.06,3.06,0,0,1-.64-2,2.74,2.74,0,0,1,1-2.25A4.21,4.21,0,0,1,4.65.57a8,8,0,0,1,3.26.72L7.32,2.82a7.13,7.13,0,0,0-2.72-.64,2.08,2.08,0,0,0-1.37.39,1.29,1.29,0,0,0-.47,1A1.47,1.47,0,0,0,3,4.38a1.91,1.91,0,0,0,.62.6,10.39,10.39,0,0,0,1.54.74A8.43,8.43,0,0,1,7,6.69a2.86,2.86,0,0,1,.86,1A3.07,3.07,0,0,1,8.09,9.06Z"/><path class="cls-1" d="M13.49,12.16V.74h1.87v9.82h4.83v1.6Z"/><path class="cls-1" d="M35.48,6.43a6.25,6.25,0,0,1-1.39,4.34,5,5,0,0,1-3.95,1.55,5.07,5.07,0,0,1-4-1.54,6.29,6.29,0,0,1-1.39-4.36,6.19,6.19,0,0,1,1.39-4.34,5.13,5.13,0,0,1,4-1.52A5,5,0,0,1,34.09,2.1,6.25,6.25,0,0,1,35.48,6.43Zm-8.71,0a5.12,5.12,0,0,0,.85,3.2,3,3,0,0,0,2.52,1.09,3,3,0,0,0,2.51-1.08,5.13,5.13,0,0,0,.85-3.21,5.14,5.14,0,0,0-.84-3.19,3,3,0,0,0-2.5-1.09,3,3,0,0,0-2.53,1.09A5.08,5.08,0,0,0,26.77,6.43Z"/><path class="cls-1" d="M45.07,12.16H43.21V2.34H39.85V.74h8.58v1.6H45.07Z"/><path class="cls-1" d="M65.66,12.16,62.35,2.62h-.06q.13,2.13.13,4v5.55H60.72V.74h2.63l3.17,9.09h0L69.83.74h2.64V12.16H70.67V6.51q0-.85,0-2.22t.07-1.66h-.06L67.3,12.16Z"/><path class="cls-1" d="M85.75,12.16,84.61,9H80.25l-1.12,3.17h-2L81.44.69h2l4.27,11.47ZM84.12,7.38,83.05,4.27q-.12-.31-.32-1t-.29-1a17.59,17.59,0,0,1-.62,2.1l-1,3Z"/><path class="cls-1" d="M97.29,2.18a3.07,3.07,0,0,0-2.53,1.14,4.88,4.88,0,0,0-.92,3.15,4.91,4.91,0,0,0,.89,3.18,3.13,3.13,0,0,0,2.56,1.08,6.7,6.7,0,0,0,1.4-.14q.68-.15,1.41-.37v1.6a8.55,8.55,0,0,1-3,.51,4.86,4.86,0,0,1-3.85-1.52,6.36,6.36,0,0,1-1.34-4.35,7,7,0,0,1,.65-3.12,4.65,4.65,0,0,1,1.89-2,5.7,5.7,0,0,1,2.9-.71,7.19,7.19,0,0,1,3.23.73l-.67,1.55a9.87,9.87,0,0,0-1.22-.48A4.4,4.4,0,0,0,97.29,2.18Z"/><path class="cls-1" d="M114.76,12.16h-1.87V7h-5.26v5.15h-1.87V.74h1.87V5.41h5.26V.74h1.87Z"/><path class="cls-1" d="M121,12.16V.74h1.87V12.16Z"/><path class="cls-1" d="M138.55,12.16h-2.29l-5.61-9.1h-.06l0,.51q.11,1.45.11,2.66v5.94H129V.74h2.26l5.6,9.05h0q0-.18-.06-1.31t0-1.76v-6h1.71Z"/><path class="cls-1" d="M151.21,12.16h-6.45V.74h6.45V2.32h-4.59V5.43h4.3V7h-4.3v3.59h4.59Z"/></svg>