<svg id="Слой_1" data-name="Слой 1" xmlns="http://www.w3.org/2000/svg" viewBox="0 0 24.81 23.82"><defs><style>.cls-1{fill:#b0a9a8;}</style></defs><title>звук off</title><g id="Прямоугольник_8" data-name="Прямоугольник 8"><rect class="cls-1" x="23.04" y="16.59" width="1.77" height="7.22"/></g><g id="Прямоугольник_8_копия" data-name="Прямоугольник 8 копия"><rect class="cls-1" x="15.36" y="16.6" width="1.77" height="7.22"/></g><path class="cls-1" d="M8.74,3.25A3.12,3.12,0,0,1,8,5.42a2.52,2.52,0,0,1-2,.77,2.54,2.54,0,0,1-2-.77,3.14,3.14,0,0,1-.69-2.18,3.09,3.09,0,0,1,.7-2.17,2.57,2.57,0,0,1,2-.76,2.52,2.52,0,0,1,2,.77A3.12,3.12,0,0,1,8.74,3.25Zm-4.36,0a2.56,2.56,0,0,0,.43,1.6,1.5,1.5,0,0,0,1.26.54,1.5,1.5,0,0,0,1.26-.54,2.57,2.57,0,0,0,.42-1.61,2.57,2.57,0,0,0-.42-1.59,1.49,1.49,0,0,0-1.25-.54,1.52,1.52,0,0,0-1.27.54A2.54,2.54,0,0,0,4.38,3.25Z"/><path class="cls-1" d="M13,6.11H12V.4h3.22v.79H13V3h2.15v.79H13Z"/><path class="cls-1" d="M19.31,6.11h-.93V.4h3.22v.79h-2.3V3h2.15v.79H19.31Z"/><g id="Прямоугольник_8_копия_2" data-name="Прямоугольник 8 копия 2"><rect class="cls-1" x="7.68" y="16.6" width="1.77" height="7.22"/></g><g id="Прямоугольник_8_копия_3" data-name="Прямоугольник 8 копия 3"><rect class="cls-1" y="16.6" width="1.77" height="7.22"/></g></svg>