<svg id="Слой_1" data-name="Слой 1" xmlns="http://www.w3.org/2000/svg" viewBox="0 0 151.29 12"><defs><style>.cls-1{fill:#b0a9a8;}</style></defs><title>withdraw</title><path class="cls-1" d="M12,11.86H10L8.07,5q-.12-.45-.31-1.29c-.12-.56-.2-.95-.23-1.17q-.08.5-.25,1.3T7,5.08L5.1,11.86h-2L1.59,6.14.09.44H2L3.63,7.09Q4,8.7,4.18,9.92q.08-.66.26-1.48t.31-1.33L6.6.44H8.45l1.9,6.7a25,25,0,0,1,.58,2.78,20.39,20.39,0,0,1,.56-2.84L13.12.44H15Z"/><path class="cls-1" d="M25.5,11.86V.44h1.87V11.86Z"/><path class="cls-1" d="M43.19,11.86H41.32V2H38V.44h8.58V2H43.19Z"/><path class="cls-1" d="M66.16,11.86H64.29V6.71H59v5.15H57.16V.44H59V5.11h5.26V.44h1.87Z"/><path class="cls-1" d="M87.32,6a5.69,5.69,0,0,1-1.57,4.32,6.3,6.3,0,0,1-4.52,1.5H78V.44h3.53A5.83,5.83,0,0,1,85.8,1.91,5.49,5.49,0,0,1,87.32,6Zm-2,.06q0-4.1-3.83-4.1H79.9v8.29h1.33Q85.35,10.29,85.35,6.1Z"/><path class="cls-1" d="M100.51,7.3v4.56H98.64V.44h3.22a5.29,5.29,0,0,1,3.27.83,3,3,0,0,1,1.06,2.5,3.12,3.12,0,0,1-2.22,3l3.22,5.05h-2.12L102.35,7.3Zm0-1.55h1.29a3,3,0,0,0,1.89-.48,1.76,1.76,0,0,0,.58-1.44,1.55,1.55,0,0,0-.63-1.39,3.47,3.47,0,0,0-1.9-.42h-1.23Z"/><path class="cls-1" d="M124.81,11.86l-1.14-3.17h-4.36l-1.12,3.17h-2L120.49.39h2l4.27,11.47Zm-1.63-4.78L122.11,4q-.12-.31-.32-1t-.29-1a17.59,17.59,0,0,1-.62,2.1l-1,3Z"/><path class="cls-1" d="M147.7,11.86h-2L143.73,5q-.12-.45-.31-1.29c-.12-.56-.2-.95-.23-1.17q-.08.5-.25,1.3t-.29,1.19l-1.89,6.78h-2l-1.48-5.72-1.5-5.7h1.9l1.63,6.66q.38,1.6.55,2.83.08-.66.26-1.48t.31-1.33L142.27.44h1.85l1.9,6.7a25,25,0,0,1,.58,2.78,20.39,20.39,0,0,1,.56-2.84L148.78.44h1.89Z"/></svg>