<svg id="Слой_1" data-name="Слой 1" xmlns="http://www.w3.org/2000/svg" viewBox="0 0 171.81 13.43"><defs><style>.cls-1{fill:#5a5959;}</style></defs><title>all trophies</title><path class="cls-1" d="M9.31,12.89,8.17,9.72H3.81L2.69,12.89h-2L5,1.42H7L11.3,12.89ZM7.68,8.11,6.61,5q-.12-.31-.32-1T6,3a17.56,17.56,0,0,1-.62,2.1l-1,3Z"/><path class="cls-1" d="M18.5,12.89V1.47h1.87v9.82H25.2v1.6Z"/><path class="cls-1" d="M32.87,12.89V1.47h1.87v9.82h4.84v1.6Z"/><path class="cls-1" d="M61,12.89H59.17V3.07H55.81V1.47h8.59v1.6H61Z"/><path class="cls-1" d="M73.71,8.33v4.56H71.84V1.47h3.23a5.3,5.3,0,0,1,3.27.83,3,3,0,0,1,1.06,2.5,3.13,3.13,0,0,1-2.22,3l3.23,5.05H78.29L75.55,8.33Zm0-1.55H75a3,3,0,0,0,1.89-.48,1.76,1.76,0,0,0,.59-1.44,1.55,1.55,0,0,0-.63-1.39A3.47,3.47,0,0,0,74.94,3H73.71Z"/><path class="cls-1" d="M97.9,7.16a6.25,6.25,0,0,1-1.39,4.34,5.86,5.86,0,0,1-7.92,0A6.28,6.28,0,0,1,87.2,7.15,6.19,6.19,0,0,1,88.59,2.8a5.14,5.14,0,0,1,4-1.52,5,5,0,0,1,3.94,1.54A6.24,6.24,0,0,1,97.9,7.16Zm-8.72,0a5.12,5.12,0,0,0,.85,3.2,3.47,3.47,0,0,0,5,0,5.13,5.13,0,0,0,.85-3.21A5.14,5.14,0,0,0,95.08,4a3,3,0,0,0-2.5-1.09A3,3,0,0,0,90,4,5.07,5.07,0,0,0,89.18,7.16Z"/><path class="cls-1" d="M113.62,4.92a3.33,3.33,0,0,1-1.17,2.74,5.16,5.16,0,0,1-3.34,1h-1.19v4.27h-1.87V1.47h3.29a5,5,0,0,1,3.21.88A3.14,3.14,0,0,1,113.62,4.92ZM107.92,7h1a3.56,3.56,0,0,0,2.11-.5A1.82,1.82,0,0,0,111.69,5a1.78,1.78,0,0,0-.6-1.47A3,3,0,0,0,109.22,3h-1.3Z"/><path class="cls-1" d="M130.6,12.89h-1.87V7.74h-5.27v5.15h-1.87V1.47h1.87V6.14h5.27V1.47h1.88Z"/><path class="cls-1" d="M139.3,12.89V1.47h1.87V12.89Z"/><path class="cls-1" d="M156.34,12.89h-6.46V1.47h6.46V3h-4.59V6.15h4.3V7.72h-4.3V11.3h4.59Z"/><path class="cls-1" d="M171.09,9.79a2.87,2.87,0,0,1-1.1,2.39,4.79,4.79,0,0,1-3,.87,7.25,7.25,0,0,1-3.17-.6V10.68a8.59,8.59,0,0,0,1.66.58,7,7,0,0,0,1.64.21,2.6,2.6,0,0,0,1.64-.42,1.37,1.37,0,0,0,.53-1.13,1.42,1.42,0,0,0-.48-1.09,7.31,7.31,0,0,0-2-1.05,5.28,5.28,0,0,1-2.2-1.45,3.06,3.06,0,0,1-.64-2,2.74,2.74,0,0,1,1-2.25,4.21,4.21,0,0,1,2.73-.82,8,8,0,0,1,3.27.72l-.59,1.52a7.14,7.14,0,0,0-2.72-.64,2.09,2.09,0,0,0-1.37.39,1.3,1.3,0,0,0-.47,1,1.47,1.47,0,0,0,.19.76,1.92,1.92,0,0,0,.62.6,10.39,10.39,0,0,0,1.55.74,8.48,8.48,0,0,1,1.84,1,2.88,2.88,0,0,1,.86,1A3.07,3.07,0,0,1,171.09,9.79Z"/></svg>