<svg id="Слой_1" data-name="Слой 1" xmlns="http://www.w3.org/2000/svg" viewBox="0 0 195 13.43"><defs><style>.cls-1{fill:#b0a9a8;}</style></defs><title>my collection</title><path class="cls-1" d="M6.45,12.16,3.13,2.62H3.07q.13,2.13.13,4v5.55H1.51V.74H4.14L7.31,9.82h0L10.62.74h2.64V12.16h-1.8V6.51q0-.85,0-2.22t.07-1.66h-.06L8.09,12.16Z"/><path class="cls-1" d="M25.2,5.95,27.9.74h2l-3.8,7v4.43H24.25V7.79L20.46.74h2Z"/><path class="cls-1" d="M51.85,2.18a3.08,3.08,0,0,0-2.53,1.14,4.88,4.88,0,0,0-.92,3.15,4.91,4.91,0,0,0,.89,3.18,3.13,3.13,0,0,0,2.57,1.08,6.72,6.72,0,0,0,1.41-.14q.68-.14,1.41-.37v1.6a8.56,8.56,0,0,1-3,.51,4.87,4.87,0,0,1-3.85-1.52,6.36,6.36,0,0,1-1.34-4.35,7,7,0,0,1,.65-3.12,4.65,4.65,0,0,1,1.89-2,5.71,5.71,0,0,1,2.9-.71,7.2,7.2,0,0,1,3.23.73l-.67,1.55a10.11,10.11,0,0,0-1.22-.48A4.42,4.42,0,0,0,51.85,2.18Z"/><path class="cls-1" d="M73,6.43a6.25,6.25,0,0,1-1.39,4.34,5.86,5.86,0,0,1-7.92,0,6.28,6.28,0,0,1-1.39-4.36,6.19,6.19,0,0,1,1.39-4.34,5.14,5.14,0,0,1,4-1.52A5,5,0,0,1,71.57,2.1,6.24,6.24,0,0,1,73,6.43Zm-8.72,0a5.12,5.12,0,0,0,.85,3.2,3.47,3.47,0,0,0,5,0A5.13,5.13,0,0,0,71,6.43a5.14,5.14,0,0,0-.84-3.19,3,3,0,0,0-2.5-1.09A3,3,0,0,0,65.1,3.25,5.07,5.07,0,0,0,64.25,6.43Z"/><path class="cls-1" d="M81.11,12.16V.74H83v9.82h4.84v1.6Z"/><path class="cls-1" d="M95.48,12.16V.74h1.87v9.82h4.84v1.6Z"/><path class="cls-1" d="M116.31,12.16h-6.46V.74h6.46V2.32h-4.59V5.43H116V7h-4.3v3.59h4.59Z"/><path class="cls-1" d="M129.33,2.18a3.08,3.08,0,0,0-2.53,1.14,4.88,4.88,0,0,0-.92,3.15,4.91,4.91,0,0,0,.89,3.18,3.13,3.13,0,0,0,2.57,1.08,6.72,6.72,0,0,0,1.41-.14q.68-.14,1.41-.37v1.6a8.56,8.56,0,0,1-3,.51,4.87,4.87,0,0,1-3.85-1.52,6.36,6.36,0,0,1-1.34-4.35,7,7,0,0,1,.65-3.12,4.65,4.65,0,0,1,1.89-2,5.71,5.71,0,0,1,2.9-.71,7.2,7.2,0,0,1,3.23.73l-.67,1.55a10.11,10.11,0,0,0-1.22-.48A4.42,4.42,0,0,0,129.33,2.18Z"/><path class="cls-1" d="M144.26,12.16h-1.87V2.34H139V.74h8.59v1.6h-3.36Z"/><path class="cls-1" d="M155.06,12.16V.74h1.87V12.16Z"/><path class="cls-1" d="M175.78,6.43a6.25,6.25,0,0,1-1.39,4.34,5.86,5.86,0,0,1-7.92,0,6.28,6.28,0,0,1-1.39-4.36,6.19,6.19,0,0,1,1.39-4.34,5.14,5.14,0,0,1,4-1.52,5,5,0,0,1,3.94,1.54A6.24,6.24,0,0,1,175.78,6.43Zm-8.72,0a5.12,5.12,0,0,0,.85,3.2,3.47,3.47,0,0,0,5,0,5.13,5.13,0,0,0,.85-3.21A5.14,5.14,0,0,0,173,3.25a3,3,0,0,0-2.5-1.09,3,3,0,0,0-2.54,1.09A5.07,5.07,0,0,0,167.06,6.43Z"/><path class="cls-1" d="M193.45,12.16h-2.29l-5.62-9.1h-.06l0,.51q.11,1.45.11,2.66v5.94h-1.7V.74h2.27l5.6,9.05h0q0-.18-.06-1.31t0-1.76v-6h1.71Z"/></svg>