<svg id="Слой_1" data-name="Слой 1" xmlns="http://www.w3.org/2000/svg" viewBox="0 0 61.13 10.5"><defs><style>.cls-1{fill:#b0a9a8;}.cls-2{fill:none;stroke:#b0a9a8;stroke-width:0.56px;}</style></defs><title>Continue game</title><path class="cls-1" d="M4.73,4.69a.58.58,0,0,0-.47.21.91.91,0,0,0-.17.59.92.92,0,0,0,.17.6.59.59,0,0,0,.48.2l.26,0,.27-.07v.3a1.59,1.59,0,0,1-.57.1A.91.91,0,0,1,4,6.31a1.19,1.19,0,0,1-.25-.81,1.31,1.31,0,0,1,.12-.58.87.87,0,0,1,.35-.38,1.07,1.07,0,0,1,.54-.13,1.36,1.36,0,0,1,.61.14l-.13.29L5,4.73A.82.82,0,0,0,4.73,4.69Z"/><path class="cls-1" d="M10,5.49a1.17,1.17,0,0,1-.26.81A1,1,0,0,1,9,6.59a1,1,0,0,1-.74-.29A1.17,1.17,0,0,1,8,5.48a1.16,1.16,0,0,1,.26-.81A1,1,0,0,1,9,4.39a.94.94,0,0,1,.74.29A1.17,1.17,0,0,1,10,5.49Zm-1.63,0a1,1,0,0,0,.16.6.65.65,0,0,0,.94,0,1,1,0,0,0,.16-.6,1,1,0,0,0-.16-.6A.56.56,0,0,0,9,4.69a.57.57,0,0,0-.48.2A1,1,0,0,0,8.39,5.49Z"/><path class="cls-1" d="M14.67,6.56h-.43L13.19,4.85h0v.1q0,.27,0,.5V6.56h-.32V4.42h.42l1.05,1.7h0s0-.1,0-.25,0-.25,0-.33V4.42h.32Z"/><path class="cls-1" d="M18.38,6.56H18V4.72H17.4v-.3H19v.3h-.63Z"/><path class="cls-1" d="M21.73,6.56V4.42h.35V6.56Z"/><path class="cls-1" d="M26.83,6.56H26.4L25.35,4.85h0v.1q0,.27,0,.5V6.56H25V4.42h.42l1.05,1.7h0s0-.1,0-.25,0-.25,0-.33V4.42h.32Z"/><path class="cls-1" d="M31.48,4.42V5.81a.82.82,0,0,1-.1.42.68.68,0,0,1-.29.27,1,1,0,0,1-.46.1A.86.86,0,0,1,30,6.38a.76.76,0,0,1-.22-.58V4.42h.35V5.77a.54.54,0,0,0,.12.39.51.51,0,0,0,.38.13q.5,0,.5-.52V4.42Z"/><path class="cls-1" d="M35.64,6.56H34.43V4.42h1.21v.3h-.86V5.3h.81v.29h-.81v.67h.86Z"/><path class="cls-1" d="M42.56,5.4h.79V6.48a2.27,2.27,0,0,1-.37.09l-.38,0a1,1,0,0,1-.75-.29,1.16,1.16,0,0,1-.26-.81,1.08,1.08,0,0,1,.3-.81,1.12,1.12,0,0,1,.82-.29,1.59,1.59,0,0,1,.64.13l-.12.29a1.24,1.24,0,0,0-.52-.12.7.7,0,0,0-.54.22.83.83,0,0,0-.2.59.88.88,0,0,0,.18.6.65.65,0,0,0,.52.2,1.69,1.69,0,0,0,.36,0V5.7h-.44Z"/><path class="cls-1" d="M47.59,6.56,47.37,6h-.82l-.21.59H46l.8-2.15h.38L48,6.56Zm-.31-.9-.2-.58L47,4.9,47,4.71a3.22,3.22,0,0,1-.12.39l-.19.56Z"/><path class="cls-1" d="M51.57,6.56l-.62-1.79h0q0,.4,0,.75v1h-.32V4.42h.49l.59,1.7h0l.61-1.7h.5V6.56h-.34V5.5c0-.11,0-.25,0-.42s0-.27,0-.31h0l-.64,1.79Z"/><path class="cls-1" d="M57,6.56H55.81V4.42H57v.3h-.86V5.3H57v.29h-.81v.67H57Z"/><rect class="cls-2" x="0.5" y="0.79" width="59.92" height="8.87"/></svg>