<svg id="Слой_1" data-name="Слой 1" xmlns="http://www.w3.org/2000/svg" viewBox="0 0 61.13 10.5"><defs><style>.cls-1{fill:#b0a9a8;}.cls-2{fill:none;stroke:#b0a9a8;stroke-width:0.56px;}</style></defs><title> finish game</title><path class="cls-1" d="M11.16,6.65h-.35V4.51H12v.3h-.86v.67H12v.3h-.81Z"/><path class="cls-1" d="M14.81,6.65V4.51h.35V6.65Z"/><path class="cls-1" d="M19.91,6.65h-.43L18.43,4.95h0V5q0,.27,0,.5V6.65h-.32V4.51h.42l1.05,1.7h0s0-.1,0-.25,0-.25,0-.33V4.51h.32Z"/><path class="cls-1" d="M22.88,6.65V4.51h.35V6.65Z"/><path class="cls-1" d="M27.43,6.07a.54.54,0,0,1-.21.45.9.9,0,0,1-.57.16,1.35,1.35,0,0,1-.59-.11V6.24a1.54,1.54,0,0,0,.31.11,1.27,1.27,0,0,0,.31,0A.49.49,0,0,0,27,6.31a.26.26,0,0,0,.1-.21.27.27,0,0,0-.09-.2,1.4,1.4,0,0,0-.37-.2,1,1,0,0,1-.41-.27.57.57,0,0,1-.12-.37.51.51,0,0,1,.19-.42.79.79,0,0,1,.51-.15,1.5,1.5,0,0,1,.61.13l-.11.29a1.34,1.34,0,0,0-.51-.12.39.39,0,0,0-.26.07.24.24,0,0,0-.09.2.27.27,0,0,0,0,.14.35.35,0,0,0,.12.11,1.8,1.8,0,0,0,.29.14,1.6,1.6,0,0,1,.35.18.55.55,0,0,1,.16.19A.6.6,0,0,1,27.43,6.07Z"/><path class="cls-1" d="M31.93,6.65h-.35v-1h-1v1h-.35V4.51h.35v.88h1V4.51h.35Z"/><path class="cls-1" d="M39,5.49h.79V6.57a2.27,2.27,0,0,1-.37.09l-.38,0a1,1,0,0,1-.75-.29A1.16,1.16,0,0,1,38,5.58a1.08,1.08,0,0,1,.3-.81,1.11,1.11,0,0,1,.82-.29,1.6,1.6,0,0,1,.64.13l-.12.29a1.24,1.24,0,0,0-.52-.12.7.7,0,0,0-.54.22.83.83,0,0,0-.2.59.88.88,0,0,0,.18.6.65.65,0,0,0,.52.2,1.69,1.69,0,0,0,.36,0V5.79H39Z"/><path class="cls-1" d="M44,6.65l-.21-.59h-.82l-.21.59h-.37l.8-2.15h.38l.8,2.15Zm-.31-.9-.2-.58L43.41,5l-.05-.18a3.4,3.4,0,0,1-.12.39l-.19.56Z"/><path class="cls-1" d="M48,6.65l-.62-1.79h0c0,.27,0,.52,0,.75v1H47V4.51h.49l.59,1.7h0l.61-1.7h.5V6.65H48.9V5.59c0-.11,0-.25,0-.42s0-.27,0-.31h0l-.64,1.79Z"/><path class="cls-1" d="M53.42,6.65H52.21V4.51h1.21v.3h-.86v.58h.81v.29h-.81v.67h.86Z"/><rect class="cls-2" x="0.6" y="0.88" width="59.92" height="8.87"/></svg>